# xmcd
#
# Track frame offsets: 
#        200
#        16777
#        29555
#        50570
#        70835
#        86600
#        103462
#        119625
#        134522
#        152367
#        165517
#        178185
#
# Disc length: 2602 seconds
#
# Revision: 2
# Processed by: cddbd v1.5.2PL0 Copyright (c) Steve Scherf et al.
# Submitted via: ExactAudioCopy v0.99pb4
#
DISCID=a30a280c
DTITLE=Sy Klopps Blues Band - Walter Ego
DYEAR=1994
DGENRE=Blues
TTITLE0=Going To Mexico
TTITLE1=Fanny Mae
TTITLE2=Key to The Highway
TTITLE3=Jesus Just Left Chicago
TTITLE4=Born Under A bad Sign
TTITLE5=going Down
TTITLE6=I got My eye on You
TTITLE7=round and Round
TTITLE8=Mercury Blues
TTITLE9=Your so fine
TTITLE10=Baby's Calling Me Home
TTITLE11=My Name Is Sy Klopps
EXTD=
EXTT0=
EXTT1=
EXTT2=
EXTT3=
EXTT4=
EXTT5=
EXTT6=
EXTT7=
EXTT8=
EXTT9=
EXTT10=
EXTT11=
PLAYORDER=
